<svg xmlns="http://www.w3.org/2000/svg" viewBox="0 0 320 320" role="img" aria-label="QR pendiente de reemplazo">
  <rect width="320" height="320" fill="#ffffff"/>
  <rect x="20" y="20" width="84" height="84" fill="#162033"/>
  <rect x="38" y="38" width="48" height="48" fill="#ffffff"/>
  <rect x="54" y="54" width="16" height="16" fill="#162033"/>
  <rect x="216" y="20" width="84" height="84" fill="#162033"/>
  <rect x="234" y="38" width="48" height="48" fill="#ffffff"/>
  <rect x="250" y="54" width="16" height="16" fill="#162033"/>
  <rect x="20" y="216" width="84" height="84" fill="#162033"/>
  <rect x="38" y="234" width="48" height="48" fill="#ffffff"/>
  <rect x="54" y="250" width="16" height="16" fill="#162033"/>
  <g fill="#162033" opacity="0.88">
    <rect x="132" y="28" width="20" height="20"/><rect x="164" y="28" width="20" height="20"/><rect x="132" y="60" width="20" height="52"/>
    <rect x="28" y="132" width="52" height="20"/><rect x="92" y="132" width="20" height="52"/><rect x="132" y="132" width="20" height="20"/>
    <rect x="172" y="124" width="24" height="24"/><rect x="220" y="132" width="20" height="52"/><rect x="268" y="132" width="20" height="20"/>
    <rect x="132" y="196" width="20" height="20"/><rect x="164" y="196" width="52" height="20"/><rect x="244" y="196" width="20" height="20"/>
    <rect x="132" y="236" width="20" height="52"/><rect x="188" y="236" width="20" height="20"/><rect x="220" y="236" width="68" height="20"/>
    <rect x="172" y="276" width="52" height="20"/><rect x="252" y="276" width="20" height="20"/>
  </g>
  <rect x="78" y="146" width="164" height="48" rx="10" fill="#ffffff" stroke="#dce3ee"/>
  <text x="160" y="166" text-anchor="middle" font-family="Arial, sans-serif" font-size="13" font-weight="700" fill="#162033">QR pendiente</text>
  <text x="160" y="184" text-anchor="middle" font-family="Arial, sans-serif" font-size="11" fill="#607086">reemplazar antes de publicar</text>
</svg>
